# AST/ASF file generated using VICON BodyLanguage
# -----------------------------------------------
:version 1.10
:name VICON
:units
  mass 1.0
  length 0.45
  angle deg
:documentation
   .ast/.asf automatically generated from VICON data using
   VICON BodyBuilder and BodyLanguage model FoxedUp or BRILLIANT.MOD
:root
   order TX TY TZ RX RY RZ
   axis XYZ
   position 0 0 0  
   orientation 0 0 0 
:bonedata
  begin
     id 1 
     name lhipjoint
     direction 0.575328 -0.747301 0.332475 
     length 2.40933 
     axis 0 0 0  XYZ
  end
  begin
     id 2 
     name lfemur
     direction 0.34202 -0.939693 0  
     length 7.31453  
     axis 0 0 20  XYZ
    dof rx ry rz
    limits (-160.0 20.0)
           (-70.0 70.0)
           (-60.0 70.0)
  end
  begin
     id 3 
     name ltibia
     direction 0.34202 -0.939693 0   
     length 7.82185   
     axis 0 0 20   XYZ
    dof rx
    limits (-10.0 170.0)
  end
  begin
     id 4 
     name lfoot
     direction 0.0795993 -0.218697 0.972541   
     length 2.19173   
     axis -90 7.62852e-016 20   XYZ
    dof rx rz
    limits (-45.0 90.0)
           (-70.0 20.0)
  end
  begin
     id 5 
     name ltoes
     direction 1.53537e-011 -4.21894e-011 1   
     length 1.10023   
     axis -90 7.62852e-016 20   XYZ
    dof rx
    limits (-90.0 20.0)
  end
  begin
     id 6 
     name rhipjoint
     direction -0.513884 -0.783789 0.348708   
     length 2.29716  
     axis 0 0 0  XYZ 
  end
  begin
     id 7 
     name rfemur
     direction -0.34202 -0.939693 0   
     length 7.59573   
     axis 0 0 -20   XYZ
    dof rx ry rz
    limits (-160.0 20.0)
           (-70.0 70.0)
           (-70.0 60.0)
  end
  begin
     id 8 
     name rtibia
     direction -0.34202 -0.939693 0   
     length 7.66402   
     axis 0 0 -20   XYZ
    dof rx
    limits (-10.0 170.0)
 end
 begin
     id 9 
     name rfoot
     direction -0.137793 -0.378584 0.915253   
     length 2.27056  
     axis -90 -7.62852e-016 -20   XYZ
    dof rx rz
    limits (-45.0 90.0)
           (-20.0 70.0)
  end
  begin
     id 10 
     name rtoes
     direction -1.53493e-011 -4.22159e-011 1   
     length 1.11766   
     axis -90 -7.62852e-016 -20   XYZ
    dof rx
    limits (-90.0 20.0)
  end
  begin
     id 11 
     name lowerback
     direction -0.00732775 0.998356 -0.05685   
     length 2.16513   
     axis 0 0 0   XYZ
    dof rx ry rz
    limits (-20.0 45.0)
           (-30.0 30.0)
           (-30.0 30.0)
  end
  begin
     id 12 
     name upperback
     direction 0.0218081 0.999627 -0.0164647   
     length 2.16755   
     axis 0 0 0   XYZ
    dof rx ry rz
    limits (-20.0 45.0)
           (-30.0 30.0)
           (-30.0 30.0)
  end
  begin
     id 13 
     name thorax
     direction 0.02365 0.999661 0.0108914   
     length 2.16932   
     axis 0 0 0   XYZ
    dof rx ry rz
    limits (-20.0 45.0)
           (-30.0 30.0)
           (-30.0 30.0)
  end
  begin
     id 14 
     name lowerneck
     direction -0.0523929 0.978385 0.200044   
     length 1.63877   
     axis 0 0 0   XYZ
    dof rx ry rz
    limits (-20.0 45.0)
           (-30.0 30.0)
           (-30.0 30.0)
  end
  begin
     id 15 
     name upperneck
     direction 0.0448674 0.981321 -0.187074   
     length 1.69014   
     axis 0 0 0   XYZ
    dof rx ry rz
    limits (-20.0 45.0)
           (-30.0 30.0)
           (-30.0 30.0)
  end
  begin
     id 16
     name head
     direction 0.0199089 0.996118 -0.0857429  
     length 1.70094  
     axis 0 0 0   XYZ
    dof rx ry rz
    limits (-20.0 45.0)
           (-30.0 30.0)
           (-30.0 30.0)
  end
  begin
     id 17 
     name lclavicle
     direction 0.940366 0.30191 -0.156722  
     length 3.37521  
     axis 0 0 0   XYZ
    dof ry rz
    limits (-20.0 10.0)
           (0.0 20.0)
  end
  begin
     id 18 
     name lhumerus
     direction 1 -4.4897e-011 -1.7911e-027   
     length 5.25287   
     axis 180 -30 -90   XYZ
    dof rx ry rz
    limits (-60.0 90.0)
           (-90.0 90.0)
           (-90.0 90.0)
  end
  begin
     id 19
     name lradius
     direction 1 -4.48951e-011 1.04424e-027   
     length 3.51014   
     axis 180 -30 -90   XYZ
    dof rx
    limits (-10.0 170.0)
  end
  begin
     id 20
     name lwrist
     direction 1 -4.48997e-011 -9.5942e-028   
     length 1.75507   
     axis 8.48502e-016 90 90   XYZ
    dof ry
    limits (-180.0 0.0)
 end
  begin
     id 21 
     name lhand
     direction 1 -4.48831e-011 -1.90777e-027   
     length 0.706179   
     axis 1.22306e-015 90 90   XYZ
    dof rx rz
    limits (-90.0 90.0)
           (-45.0 45.0)
  end
  begin
     id 22 
     name lfingers
     direction 1 -4.49108e-011 -3.85244e-027   
     length 0.569339   
     axis 2.44611e-015 90 90   XYZ
    dof rx
    limits (0.0 90.0)
  end
  begin
     id 23
     name lthumb
     direction 0.707107 -6.34953e-011 0.707107   
     length 0.817461   
     axis -90 45 -1.62303e-014   XYZ
    dof rx rz
    limits (-45.0 45.0)
           (-45.0 45.0)
  end
  begin
     id 24 
     name rclavicle
     direction -0.905329 0.382405 -0.184787   
     length 3.30787  
     axis 0 0 0   XYZ 
    dof ry rz
    limits (-10.0 20.0)
           (-20.0 0.0)
  end
  begin
     id 25 
     name rhumerus
     direction -1 -4.48953e-011 -9.15316e-029  
     length 5.28721   
     axis 180 30 90   XYZ
    dof rx ry rz
    limits (-90.0 60.0)
           (-90.0 90.0)
           (-90.0 90.0)
  end
  begin
     id 26 
     name rradius
     direction -1 -4.48987e-011 9.37824e-028   
     length 3.50544   
     axis 180 30 90   XYZ
    dof rx
    limits (-10.0 170.0)
  end
  begin
     id 27 
     name rwrist
     direction -1 -4.48967e-011 -9.58414e-028   
     length 1.75272   
     axis 8.48502e-016 -90 -90   XYZ
    dof ry
    limits (-180.0 0.0)
  end
  begin
     id 28
     name rhand
     direction -1 -4.48904e-011 -1.91266e-027   
     length 0.884996   
     axis 1.22306e-015 -90 -90   XYZ
    dof rx rz
    limits (-90.0 90.0)
           (-45.0 45.0)
  end
  begin
     id 29
     name rfingers
     direction -1 -4.4909e-011 -3.85015e-027   
     length 0.713507   
     axis 2.44611e-015 -90 -90   XYZ
    dof rx
    limits (0.0 90.0)
  end
  begin
     id 30
     name rthumb
     direction -0.707107 -6.34853e-011 0.707107   
     length 1.02446   
     axis -90 -45 1.62303e-014   XYZ
    dof rx rz
    limits (-45.0 45.0)
           (-45.0 45.0)
  end
:hierarchy
  begin
    root lhipjoint rhipjoint lowerback
    lhipjoint lfemur
    lfemur ltibia
    ltibia lfoot
    lfoot ltoes
    rhipjoint rfemur
    rfemur rtibia
    rtibia rfoot
    rfoot rtoes
    lowerback upperback
    upperback thorax
    thorax lowerneck lclavicle rclavicle
    lowerneck upperneck
    upperneck head
    lclavicle lhumerus
    lhumerus lradius
    lradius lwrist
    lwrist lhand lthumb
    lhand lfingers
    rclavicle rhumerus
    rhumerus rradius
    rradius rwrist
    rwrist rhand rthumb
    rhand rfingers
  end

#!OML:ASF F:\twosubjects\two\Thursday\Session 1\justin.ASF
:FULLY-SPECIFIED
:DEGREES
1
root 8.66224 18.4613 11.0948 -169.517 -12.2106 -177.814
lowerback -0.148746 0.793781 -2.84383
upperback 1.27321 1.06318 0.678756
thorax 1.32426 0.48974 2.30342
lowerneck -17.8604 -7.80391 -13.7651
upperneck 18.2267 -9.13627 8.70945
head 9.77478 -4.35346 3.98007
rclavicle -1.51573e-014 6.55989e-015
rhumerus -28.9058 -9.22761 -83.3534
rradius 29.4037
rwrist -3.1817
rhand -11.9407 10.063
rfingers 7.12502
rthumb 14.1141 -19.4377
lclavicle -1.51573e-014 6.55989e-015
lhumerus -30.3632 4.18276 83.7995
lradius 27.4619
lwrist -7.02256
lhand 0.21725 37.4649
lfingers 7.12502
lthumb 25.7984 65.7356
rfemur -11.2087 0.639698 19.5909
rtibia 44.9646
rfoot -4.97277 11.0434
rtoes -9.29539
lfemur -23.059 9.25587 -20.9176
ltibia 19.0818
lfoot -5.29643 -7.12177
ltoes -8.80497
2
root 8.61488 18.4614 11.0327 -169.631 -11.8805 -177.969
lowerback -0.0260893 0.738102 -3.12641
upperback 1.35747 0.986762 0.622963
thorax 1.34321 0.446245 2.40285
lowerneck -18.2076 -7.71421 -13.8616
upperneck 18.3139 -8.9962 8.9748
head 9.86981 -4.25817 4.1067
rclavicle 1.93318e-014 -3.97569e-016
rhumerus -28.7836 -8.60322 -83.5577
rradius 29.6229
rwrist -3.17169
rhand -12.1553 10.9536
rfingers 7.12502
rthumb 13.9073 -18.5613
lclavicle 1.93318e-014 -3.97569e-016
lhumerus -30.2694 3.43106 83.9655
lradius 27.7141
lwrist -6.77745
lhand 0.288521 37.6962
lfingers 7.12502
lthumb 25.8667 65.957
rfemur -12.1721 0.430119 19.0637
rtibia 46.9429
rfoot -4.60271 11.5665
rtoes -11.1007
lfemur -22.4818 9.42678 -21.1544
ltibia 18.8405
lfoot -5.46279 -6.99468
ltoes -8.65407
3
root 8.56673 18.4521 10.9797 -169.604 -11.6196 -178.329
lowerback 0.083056 0.649119 -3.58781
upperback 1.32184 0.867861 0.538579
thorax 1.24832 0.384245 2.57234
lowerneck -18.0978 -7.57187 -13.7171
upperneck 18.1647 -8.78805 8.76228
head 9.753 -4.17486 4.0422
rclavicle 1.96797e-014 -2.38542e-015
rhumerus -28.6928 -8.34747 -83.6115
rradius 30.0659
rwrist -3.03756
rhand -11.3602 9.70846
rfingers 7.12502
rthumb 14.6734 -19.7523
lclavicle 1.96797e-014 -2.38542e-015
lhumerus -30.2787 2.84871 84.1215
lradius 27.9343
lwrist -6.97291
lhand 0.274227 37.9238
lfingers 7.12502
lthumb 25.853 66.1866
rfemur -13.1974 0.180711 18.3144
rtibia 48.8129
rfoot -4.30675 11.9794
rtoes -12.9034
lfemur -22.1682 9.3055 -21.5811
ltibia 18.9054
lfoot -5.79652 -6.66722
ltoes -8.69531
4
root 8.5197 18.4357 10.9277 -169.726 -11.4002 -178.559
lowerback 0.384837 0.551704 -3.90844
upperback 1.26309 0.725721 0.523076
thorax 1.02551 0.315009 2.73171
lowerneck -17.84 -7.40835 -13.6273
upperneck 17.9092 -8.5209 8.42981
head 9.56336 -4.08222 3.95522
rclavicle -2.54444e-014 -1.17283e-014
rhumerus -28.6042 -7.82141 -83.7569
rradius 30.4048
rwrist -3.33152
rhand -11.1807 9.20816
rfingers 7.12502
rthumb 14.8464 -20.2399
lclavicle -2.54444e-014 -1.17283e-014
lhumerus -30.3735 2.22732 84.3245
lradius 28.1196
lwrist -6.96816
lhand 0.577053 38.203
lfingers 7.12502
lthumb 26.143 66.4231
rfemur -14.0845 -0.166294 17.7448
rtibia 50.5935
rfoot -3.77812 12.083
rtoes -12.9359
lfemur -21.6489 9.3208 -21.8791
ltibia 18.8029
lfoot -5.93851 -6.53728
ltoes -8.5525
5
root 8.47618 18.4235 10.8724 -169.838 -11.1747 -178.995
lowerback 0.732917 0.461749 -4.38462
upperback 1.24862 0.587645 0.390296
thorax 0.823267 0.245464 2.85899
lowerneck -17.93 -7.31823 -13.6104
upperneck 17.8997 -8.3718 8.38267
head 9.5552 -4.01371 3.95735
rclavicle 4.37326e-014 1.27222e-014
rhumerus -28.5165 -7.24987 -84.0017
rradius 30.7538
rwrist -3.30882
rhand -11.5665 9.91924
rfingers 7.12502
rthumb 14.4747 -19.5559
lclavicle 4.37326e-014 1.27222e-014
lhumerus -30.3238 1.61853 84.3512
lradius 28.2778
lwrist -6.94588
lhand 1.21055 37.8286
lfingers 7.12502
lthumb 26.7494 65.9576
rfemur -14.9258 -0.646394 16.9912
rtibia 52.2711
rfoot -3.54938 11.6762
rtoes -13.4923
lfemur -21.1887 9.59858 -22.4746
ltibia 18.7614
lfoot -6.06814 -6.59586
ltoes -8.45401
6
root 8.43259 18.422 10.8157 -169.948 -10.8641 -179.351
lowerback 0.916769 0.400226 -4.74693
upperback 1.30889 0.492335 0.222152
thorax 0.78887 0.19286 2.88836
lowerneck -18.2331 -7.23834 -13.5098
upperneck 18.1681 -8.25414 8.32908
head 9.68242 -3.95464 3.93667
rclavicle -3.46879e-014 7.95139e-016
rhumerus -28.275 -6.83935 -84.3173
rradius 31.2901
rwrist -3.49972
rhand -11.6584 10.7595
rfingers 7.12502
rthumb 14.3862 -18.722
lclavicle -3.46879e-014 7.95139e-016
lhumerus -30.077 1.25218 84.1814
lradius 28.3447
lwrist -7.11843
lhand 2.05585 37.0669
lfingers 7.12502
lthumb 27.558 65.0696
rfemur -15.7952 -1.20846 16.3541
rtibia 53.8209
rfoot -4.03533 10.9418
rtoes -15.7639
lfemur -20.7412 9.9398 -22.9899
ltibia 18.7202
lfoot -6.45215 -6.47506
ltoes -9.18094
